# xmcd
#
# Track frame offsets:
#	150
#	8480
#	13660
#	24989
#	30768
#	40822
#	46752
#	55382
#	63187
#	74442
#	79996
#	93951
#	98980
#	107684
#	115262
#	120667
#	129297
#	138936
#	151431
#
# Disc length: 2122 seconds
#
# Revision: 8
# Processed by: cddbd v1.5.2PL0 Copyright (c) Steve Scherf et al.
# Submitted via: Jack! The Knife 20 Magnifico
#
DISCID=e5084813
DTITLE=La Polla Records - Salve
DYEAR=1984
DGENRE=Punk
TTITLE0=Venganza
TTITLE1=Porno En Acción
TTITLE2=Tope Bwana
TTITLE3=Estrella Del Rock
TTITLE4=Delincuencia
TTITLE5=Los Siete Enanitos
TTITLE6=Nuestra Alegre Juventud
TTITLE7=Críticos
TTITLE8=Muy Punk
TTITLE9=Herpes, Talco Y Tecno Pop
TTITLE10=Salve
TTITLE11=Asi Casca La Basca
TTITLE12=Come Mierda
TTITLE13=El Gurú
TTITLE14=Tu Alucinas
TTITLE15=El 7o. De Michigan
TTITLE16=Canción De Cuna
TTITLE17=Revistas Del Corazon
TTITLE18=Txus
EXTD=Patxi Goñi
EXTT0=
EXTT1=
EXTT2=
EXTT3=
EXTT4=
EXTT5=
EXTT6=
EXTT7=
EXTT8=
EXTT9=
EXTT10=
EXTT11=
EXTT12=
EXTT13=
EXTT14=
EXTT15=
EXTT16=
EXTT17=
EXTT18=
PLAYORDER=
